<svg xmlns="http://www.w3.org/2000/svg" viewBox="0 0 100 100">
  <defs>
    <linearGradient id="bgGrad" x1="0%" y1="0%" x2="100%" y2="100%">
      <stop offset="0%" style="stop-color:#0ea5e9"/>
      <stop offset="100%" style="stop-color:#a855f7"/>
    </linearGradient>
  </defs>
  <rect width="100" height="100" rx="20" fill="url(#bgGrad)"/>
  <g fill="white">
    <!-- Robot head -->
    <rect x="25" y="20" width="50" height="40" rx="8"/>
    <!-- Eyes -->
    <circle cx="38" cy="38" r="6" fill="#0ea5e9"/>
    <circle cx="62" cy="38" r="6" fill="#0ea5e9"/>
    <circle cx="38" cy="38" r="3" fill="white"/>
    <circle cx="62" cy="38" r="3" fill="white"/>
    <!-- Antenna -->
    <rect x="47" y="10" width="6" height="12" rx="3"/>
    <circle cx="50" cy="8" r="5"/>
    <!-- Body -->
    <rect x="30" y="65" width="40" height="25" rx="5"/>
    <!-- Sparkles -->
    <path d="M15 15 L17 20 L22 22 L17 24 L15 29 L13 24 L8 22 L13 20 Z" fill="rgba(255,255,255,0.8)"/>
    <path d="M85 70 L86.5 74 L90.5 75.5 L86.5 77 L85 81 L83.5 77 L79.5 75.5 L83.5 74 Z" fill="rgba(255,255,255,0.8)"/>
  </g>
</svg>
